<?xml version="1.0" encoding="UTF-8" standalone="no"?> <svg id="Rainbow" xmlns="http://www.w3.org/2000/svg" viewBox="0 0 512 512"><defs><style>.cls-1{fill:#28ff96;}.cls-1,.cls-2,.cls-3,.cls-4{stroke:#1e00d2;}.cls-1,.cls-2,.cls-3,.cls-4,.cls-6,.cls-7{stroke-miterlimit:10;}.cls-2{fill:#ffbe00;}.cls-3{fill:#ff3264;}.cls-4,.cls-6,.cls-7{fill:none;}.cls-4{stroke-width:8.81px;}.cls-5{fill:#eceded;}.cls-6,.cls-7{stroke:#3c64ff;stroke-width:8.8px;}.cls-7{stroke-linecap:round;}</style></defs><title>Icon_Rainbow</title><g id="_Grupo_" data-name="&lt;Grupo&gt;"><path class="cls-1" d="M254,181A120.13,120.13,0,0,1,374,301H344a90,90,0,0,0-180,0H134A120.13,120.13,0,0,1,254,181Z"/><path class="cls-2" d="M254,151c82.71,0,150,67.29,150,150H374a120,120,0,0,0-240,0H104C104,218.28,171.29,151,254,151Z"/><path class="cls-3" d="M434,301H404c0-82.71-67.29-150-150-150S104,218.28,104,301H74c0-99.26,80.75-180,180-180S434,201.73,434,301Z"/><path class="cls-4" d="M404,301h30c0-99.26-80.75-180-180-180S74,201.73,74,301h30"/><path class="cls-4" d="M374,301h30c0-82.71-67.29-150-150-150S104,218.28,104,301h30"/><path class="cls-4" d="M134,301h30a90,90,0,0,1,180,0h30a120,120,0,0,0-240,0Z"/></g><path class="cls-5" d="M315.28,391a33,33,0,0,1,1.32-66c.26,0-.44-5.16-.44-7.92a26.4,26.4,0,0,1,40.39-22.39,44,44,0,0,1,85.32-4.48A50.6,50.6,0,0,1,435.4,391Z"/><path class="cls-5" d="M57.68,391A33,33,0,0,1,59,325c.26,0-.44-5.16-.44-7.92A26.4,26.4,0,0,1,99,294.7a44,44,0,0,1,85.32-4.48A50.6,50.6,0,0,1,177.8,391Z"/><path class="cls-6" d="M217.6,309.16a50.55,50.55,0,0,0-8.76-8.72"/><path class="cls-7" d="M202.18,296.06a50.15,50.15,0,0,0-17.91-5.84A44,44,0,0,0,99,294.7a26.4,26.4,0,0,0-40.39,22.39c0,2.76.7,7.92.44,7.92a33,33,0,0,0,0,66H177.8a50.62,50.62,0,0,0,44.09-75.45"/><path class="cls-7" d="M59,325a32.86,32.86,0,0,1,23.32,9.65"/><path class="cls-6" d="M475.2,309.16a50.55,50.55,0,0,0-8.76-8.72"/><path class="cls-7" d="M459.78,296.06a50.15,50.15,0,0,0-17.91-5.84,44,44,0,0,0-85.32,4.48,26.4,26.4,0,0,0-40.39,22.39c0,2.76.7,7.92.44,7.92a33,33,0,0,0,0,66H435.4a50.62,50.62,0,0,0,44.09-75.45"/><path class="cls-7" d="M316.6,325a32.86,32.86,0,0,1,23.32,9.65"/></svg>