<?xml version="1.0" encoding="UTF-8" standalone="no"?> <svg id="Layer_1" data-name="Layer 1" xmlns="http://www.w3.org/2000/svg" viewBox="0 0 128 128"><defs><style>.cls-1{fill:#1d75b8;}.cls-2{fill:#2d3e50;}</style></defs><title>v</title><path class="cls-1" d="M124.48217,61.99927C112.82742,33.30725,90.10639,18.378,66.94231,17.2149V11.04314a2.80724,2.80724,0,0,0-.15577-.93806,2.93915,2.93915,0,0,0-5.57294,0,2.80777,2.80777,0,0,0-.15577.93806V17.2149C37.89375,18.378,15.17273,33.30725,3.518,61.99927a.53038.53038,0,0,0,.86536.57808,27.60274,27.60274,0,0,1,39.4191,1.01421,27.0031,27.0031,0,0,1,17.25537-8.64327,27.86684,27.86684,0,0,1,5.88448,0A27.0032,27.0032,0,0,1,84.1977,63.59155a27.60274,27.60274,0,0,1,39.4191-1.01421A.53055.53055,0,0,0,124.48217,61.99927Z"/><path class="cls-2" d="M80.78124,105.624a2.93977,2.93977,0,0,0-2.94224,2.94224,5.44834,5.44834,0,0,1-10.89669,0V60.36547a20.94345,20.94345,0,0,0-5.88448,0v48.20082a11.33282,11.33282,0,0,0,22.66565,0A2.942,2.942,0,0,0,80.78124,105.624Z"/></svg>