<?xml version="1.0" encoding="UTF-8" standalone="no"?> <svg id="Raining" xmlns="http://www.w3.org/2000/svg" viewBox="0 0 512 512"><defs><style>.cls-1{fill:#b1b3b4;}.cls-2{fill:#87888a;}.cls-3{fill:#3c64ff;}</style></defs><title>Icon_Raining</title><path class="cls-1" d="M129.6,305.06a60,60,0,0,1,2.4-120c.47,0-.8-9.37-.8-14.4A48,48,0,0,1,204.63,130a80,80,0,0,1,155.13-8.15A92,92,0,0,1,348,305.1Z"/><path class="cls-2" d="M417.23,158.77A88.63,88.63,0,0,0,402,143.6l4.91-6.31a96.41,96.41,0,0,1,16.63,16.54Z"/><path class="cls-2" d="M348,309.1H132a64,64,0,0,1-4.11-127.87c0-.42-.08-.85-.11-1.26-.27-3.11-.58-6.62-.58-9.27a52,52,0,0,1,74.7-46.78,84,84,0,0,1,160.91-5.68A94.83,94.83,0,0,1,394.26,129a4,4,0,1,1-3.86,7,87.11,87.11,0,0,0-31.14-10.16l-2.57-.33-.75-2.48a76,76,0,0,0-147.38,7.74l-1.1,5.74-5-3.1A44,44,0,0,0,135.2,170.7c0,2.3.3,5.78.55,8.57.52,5.94.61,7-.77,8.52l-1.19,1.3H132a56,56,0,0,0,0,112H348a88,88,0,0,0,76.68-131.2,4,4,0,0,1,7-3.93A96,96,0,0,1,348,309.1Z"/><path class="cls-2" d="M174.4,206.65a4,4,0,0,1-2.83-1.17A55.62,55.62,0,0,0,132,189.1a4,4,0,0,1,0-8,63.6,63.6,0,0,1,45.23,18.72,4,4,0,0,1-2.83,6.83Z"/><path class="cls-3" d="M232.51,366.41a4,4,0,0,1-2.83-6.83l16.91-16.91a4,4,0,1,1,5.66,5.66l-16.91,16.91A4,4,0,0,1,232.51,366.41Z"/><rect class="cls-3" x="204.15" y="378" width="17.53" height="8" transform="translate(-207.76 262.44) rotate(-45)"/><path class="cls-3" d="M263.15,388.2a4,4,0,0,1-2.83-6.82l16.91-16.92a4,4,0,1,1,5.66,5.66L266,387A4,4,0,0,1,263.15,388.2Z"/><rect class="cls-3" x="290.89" y="343.7" width="17.53" height="8" transform="translate(-158.09 313.73) rotate(-45)"/><path class="cls-3" d="M345.38,366.41a4,4,0,0,1-2.83-6.83l16.91-16.91a4,4,0,0,1,5.65,5.66L348.2,365.24A4,4,0,0,1,345.38,366.41Z"/><rect class="cls-3" x="317.01" y="378" width="17.53" height="8" transform="translate(-174.7 342.25) rotate(-45)"/><path class="cls-3" d="M119.65,366.41a4,4,0,0,1-2.83-6.83l16.91-16.91a4,4,0,1,1,5.65,5.66l-16.91,16.91A4,4,0,0,1,119.65,366.41Z"/><rect class="cls-3" x="91.28" y="378" width="17.53" height="8" transform="translate(-240.81 182.63) rotate(-45)"/><path class="cls-3" d="M150.28,388.2a4,4,0,0,1-2.83-6.82l16.91-16.92a4,4,0,1,1,5.66,5.66L153.11,387A4,4,0,0,1,150.28,388.2Z"/><rect class="cls-3" x="178.02" y="343.7" width="17.53" height="8" transform="translate(-191.15 233.92) rotate(-45)"/><path class="cls-3" d="M225.36,426.27a4,4,0,0,1-2.83-6.83l16.91-16.91a4,4,0,0,1,5.66,5.66L228.18,425.1A4,4,0,0,1,225.36,426.27Z"/><rect class="cls-3" x="196.99" y="437.87" width="17.53" height="8" transform="translate(-252.18 274.91) rotate(-45)"/><path class="cls-3" d="M256,448.07a4,4,0,0,1-2.83-6.83l16.91-16.91a4,4,0,0,1,5.66,5.66L258.82,446.9A4,4,0,0,1,256,448.07Z"/><rect class="cls-3" x="283.73" y="403.56" width="17.53" height="8" transform="translate(-202.52 326.2) rotate(-45)"/><path class="cls-3" d="M338.22,426.27a4,4,0,0,1-2.83-6.83l16.91-16.91a4,4,0,0,1,5.66,5.66L341.05,425.1A4,4,0,0,1,338.22,426.27Z"/><rect class="cls-3" x="309.86" y="437.87" width="17.53" height="8" transform="translate(-219.13 354.72) rotate(-45)"/><path class="cls-3" d="M112.49,426.27a4,4,0,0,1-2.83-6.83l16.91-16.91a4,4,0,0,1,5.66,5.66L115.32,425.1A4,4,0,0,1,112.49,426.27Z"/><rect class="cls-3" x="84.13" y="437.87" width="17.53" height="8" transform="translate(-285.24 195.11) rotate(-45)"/><path class="cls-3" d="M143.13,448.07a4,4,0,0,1-2.83-6.83l16.91-16.91a4,4,0,1,1,5.66,5.66L146,446.9A4,4,0,0,1,143.13,448.07Z"/><rect class="cls-3" x="170.87" y="403.56" width="17.53" height="8" transform="translate(-235.57 246.39) rotate(-45)"/></svg>